<svg version="1.2" xmlns="http://www.w3.org/2000/svg" xmlns:xlink="http://www.w3.org/1999/xlink" overflow="visible" preserveAspectRatio="none" viewBox="0 0 632 632" width="20" height="20"><g><path xmlns:default="http://www.w3.org/2000/svg" d="M315.7,0C142.1,0,0,142.1,0,315.7s142.1,315.7,315.7,315.7s315.7-142.1,315.7-315.7S489.3,0,315.7,0z M239.4,473.6H392  c-23.7,60.5-57.9,102.6-76.3,121C297.3,576.2,263.1,534.1,239.4,473.6z M228.9,447.3c-10.5-34.2-18.4-73.7-18.4-118.4h210.5  c0,44.7-7.9,84.2-18.4,118.4H228.9z M26.3,328.9h157.9c0,44.7,7.9,84.2,18.4,118.4H57.9C39.5,410.4,28.9,371,26.3,328.9z M392,157.9  H242c21-60.5,55.2-100,73.7-121C334.1,57.9,368.3,97.3,392,157.9z M399.9,184.2c10.5,34.2,18.4,73.7,21,118.4H210.5  c0-44.7,7.9-84.2,21-118.4H399.9z M184.2,302.6H26.3c2.6-42.1,13.2-81.6,31.6-118.4h144.7C192.1,218.4,186.8,257.8,184.2,302.6z   M447.3,328.9h157.9c-2.6,42.1-13.2,81.6-31.6,118.4H428.8C439.4,413.1,444.6,373.6,447.3,328.9z M447.3,302.6  c0-44.7-7.9-84.2-18.4-118.4h144.7c18.4,36.8,28.9,76.3,31.6,118.4H447.3z M557.8,157.9H418.3C394.6,97.3,365.7,52.6,342,28.9  C434.1,36.8,510.4,86.8,557.8,157.9z M289.4,28.9c-23.7,26.3-52.6,68.4-76.3,128.9H73.7C121,86.8,197.3,36.8,289.4,28.9z   M73.7,473.6h136.8c21,60.5,52.6,105.2,76.3,128.9C197.3,594.6,121,544.6,73.7,473.6z M344.6,602.5c23.7-26.3,55.2-68.4,76.3-128.9  h136.8C510.4,544.6,434.1,594.6,344.6,602.5z" style="fill: rgb(15, 115, 157);" vector-effect="non-scaling-stroke"/></g></svg>