<?xml version="1.0" encoding="UTF-8"?>
<svg width="660px" height="402px" viewBox="0 0 660 402" version="1.1" xmlns="http://www.w3.org/2000/svg" xmlns:xlink="http://www.w3.org/1999/xlink">
    <title>New York State Identifier</title>
    <defs>
        <path d="M395.564,1.997 C392.84,2.335 390.254,2.651 388.553,2.657 L388.553,2.657 C382.239,2.698 375.893,2.863 369.521,3.027 L369.521,3.027 C356.824,3.346 343.701,3.681 331.051,2.956 L331.051,2.956 L329.793,2.888 C323.016,2.497 319.608,2.299 312.429,4.994 L312.429,4.994 C307,7.034 301.18,10.453 296.716,13.194 L296.716,13.194 C291.21,16.593 286.686,20.843 282.309,24.953 L282.309,24.953 C281.4,25.807 280.49,26.663 279.566,27.514 L279.566,27.514 C278.111,28.854 276.249,30.335 274.29,31.892 L274.29,31.892 C268.378,36.603 261.68,41.93 258.938,48.767 L258.938,48.767 C258.362,50.187 258.142,51.832 257.927,53.415 L257.927,53.415 C257.814,54.25 257.644,55.54 257.453,56.225 L257.453,56.225 C254.768,58.1 252.493,60.212 250.286,62.25 L250.286,62.25 C249.304,63.159 248.3,64.087 247.227,65.03 L247.227,65.03 C244.691,67.248 241.474,68.962 238.065,70.769 L238.065,70.769 C235.625,72.071 233.089,73.424 230.697,75.028 L230.697,75.028 L229.686,75.681 C226.879,77.468 223.038,79.903 221.792,83.683 L221.792,83.683 C220.289,88.235 222.992,96.246 227.912,98.509 L227.912,98.509 C230.977,99.921 233.659,98.888 235.333,98.089 L235.333,98.089 C235.464,98.474 235.56,98.888 235.565,99.185 L235.565,99.185 C235.602,100.728 234.447,102.324 232.536,104.763 L232.536,104.763 C230.101,107.86 227.069,111.723 227.418,117.196 L227.418,117.196 C227.541,119.131 228.147,121.254 228.844,123.714 L228.844,123.714 C229.839,127.215 231.51,133.076 229.61,133.912 L229.61,133.912 C229.158,134.105 227.652,134.034 226.658,133.979 L226.658,133.979 C223.803,133.839 219.514,133.604 216.282,136.935 L216.282,136.935 C214.501,138.75 212.233,140.225 209.662,141.825 L209.662,141.825 L208.662,142.439 C206.261,143.911 203.271,145.724 201.187,148.562 L201.187,148.562 C200.702,149.236 200.316,149.891 199.96,150.52 L199.96,150.52 C199.869,150.673 199.793,150.823 199.714,150.963 L199.714,150.963 C198.578,151.191 197.46,151.358 196.343,151.536 L196.343,151.536 C194.075,151.878 191.735,152.23 189.233,153.005 L189.233,153.005 C188.108,153.36 186.952,153.785 185.768,154.22 L185.768,154.22 C183.089,155.2 180.337,156.206 178.158,156.127 L178.158,156.127 C176.207,156.049 174.269,155.866 172.345,155.683 L172.345,155.683 C168.062,155.27 163.631,154.855 158.904,155.479 L158.904,155.479 C156.005,155.866 153.62,156.705 151.523,157.445 L151.523,157.445 C147.337,158.936 146.357,159.176 143.934,156.965 L143.934,156.965 C139.212,152.653 136.124,151.465 129.834,150.267 L129.834,150.267 L114.454,147.354 C111.671,146.817 109.156,147.317 107.114,147.726 L107.114,147.726 C105.764,148.003 104.593,148.235 103.738,148.112 L103.738,148.112 C89.266,145.994 73.404,148.63 53.824,156.411 L53.824,156.411 C47.272,159.007 45.377,161.642 45.988,167.278 L45.988,167.278 C46.141,168.61 46.301,170.113 45.988,172.456 L45.988,172.456 C45.67,174.78 45.556,177.736 47.538,179.954 L47.538,179.954 C49.521,182.191 52.147,182.115 53.582,182.127 L53.582,182.127 C54.03,182.118 54.639,182.11 54.811,182.2 L54.811,182.2 C55.01,182.301 55.111,182.384 55.111,182.384 L55.111,182.384 C55.314,182.921 54.968,184.775 54.775,185.773 L54.775,185.773 C54.674,186.36 54.569,186.93 54.485,187.474 L54.485,187.474 C53.65,193.01 54.881,195.68 56.322,198.782 L56.322,198.782 C56.628,199.45 56.979,200.193 57.342,201.057 L57.342,201.057 C58.114,202.907 58.228,203.191 53.318,205.966 L53.318,205.966 C51.174,207.166 48.741,208.535 46.814,210.513 L46.814,210.513 C45.026,212.353 43.877,214.451 42.875,216.308 L42.875,216.308 C41.942,218.013 41.151,219.485 40.087,220.374 L40.087,220.374 C38.593,221.632 36.427,222.776 34.121,223.988 L34.121,223.988 C31.448,225.391 28.689,226.852 26.263,228.839 L26.263,228.839 C24.5,230.281 22.927,231.829 21.404,233.328 L21.404,233.328 C19.367,235.34 17.453,237.23 15.326,238.64 L15.326,238.64 C14.505,239.181 12.972,239.856 11.492,240.511 L11.492,240.511 C7.534,242.265 3.048,244.247 0.742,247.945 L0.742,247.945 C0.252,248.728 -0.004,249.635 -0.004,250.557 L-0.004,250.557 L0.011,268.028 C0.018,271.315 0.389,274.984 3.081,277.39 L3.081,277.39 C5.865,279.861 9.3,279.464 12.335,279.115 L12.335,279.115 C13.697,278.959 15.104,278.797 16.677,278.797 L16.677,278.797 L266.891,278.989 C274.467,278.989 281.756,279.173 287.835,281.28 L287.835,281.28 C288.655,281.562 289.857,282.926 290.645,283.83 L290.645,283.83 C291.39,284.669 292.064,285.392 292.652,285.889 L292.652,285.889 C294.568,287.48 296.631,288.315 298.445,289.045 L298.445,289.045 C299.926,289.643 301.195,290.157 301.957,290.921 L301.957,290.921 C303.558,292.528 303.605,295.032 303.562,298.981 L303.562,298.981 C303.546,300.276 303.533,301.555 303.601,302.804 L303.601,302.804 C304.097,312.347 307.863,316.187 312.225,320.641 L312.225,320.641 C312.804,321.238 313.431,321.862 314.06,322.536 L314.06,322.536 C317.182,325.823 321.105,326.151 323.702,326.363 L323.702,326.363 C324.267,326.407 325.079,326.465 325.394,326.489 L325.394,326.489 C325.86,327.217 326.522,328.73 326.652,329.358 L326.652,329.358 C327.527,333.658 332.766,336.659 340.663,340.736 L340.663,340.736 C341.866,341.365 342.88,341.877 343.455,342.227 L343.455,342.227 L345.972,343.768 C353.118,348.149 360.276,352.522 367.424,356.891 L367.424,356.891 C368.558,357.568 369.737,358.2 370.931,358.827 L370.931,358.827 C373.405,360.128 375.733,361.351 377.11,363.058 L377.11,363.058 C377.558,363.632 377.594,363.678 377.36,366.245 L377.36,366.245 C377.1,369.112 376.614,372.046 375.866,375.214 L375.866,375.214 C375.773,375.628 375.651,376.021 375.528,376.401 L375.528,376.401 C375.249,377.299 374.904,378.419 374.757,379.747 L374.757,379.747 C374.56,381.351 374.434,383.107 374.8,385.141 L374.8,385.141 C374.287,385.478 373.673,385.944 373.074,386.614 L373.074,386.614 C372.536,387.214 372.067,387.885 371.609,388.559 L371.609,388.559 L371.159,389.22 C369.768,391.215 369.251,393.392 369.713,395.338 L369.713,395.338 C370.11,397.031 371.181,398.427 372.725,399.27 L372.725,399.27 C373.755,399.83 374.815,400.018 375.803,400.018 L375.803,400.018 C377.236,400.018 378.551,399.614 379.491,399.325 L379.491,399.325 L379.889,399.211 C383.156,398.482 386.46,397.851 389.749,397.247 L389.749,397.247 L393.538,396.558 C398.935,395.581 404.526,394.57 410.018,393.289 L410.018,393.289 C411.615,392.913 413.636,392.226 415.988,391.431 L415.988,391.431 C418.967,390.405 425.178,388.291 426.771,388.483 L426.771,388.483 C430.501,389.699 433.841,388.193 436.512,386.979 L436.512,386.979 C438.318,386.176 440.036,385.396 441.809,385.316 L441.809,385.316 C447.985,385.061 452.849,384.259 457.598,382.715 L457.598,382.715 C460.347,381.81 462.732,380.481 465.044,379.193 L465.044,379.193 C467.296,377.946 469.431,376.75 471.525,376.22 L471.525,376.22 C473.336,375.762 475.146,375.252 476.972,374.739 L476.972,374.739 C481.013,373.583 485.009,372.325 488.997,371.055 L488.997,371.055 L494.286,369.398 C499.849,367.683 511.413,364.137 511.502351,355.534 L511.502351,355.534 C511.529,353.264 509.994,351.271 507.793,350.695 L507.793,350.695 C504.099,349.744 500.477,350.138 497.279,350.486 L497.279,350.486 C494.12,350.82 491.392,351.113 489.04,350.195 L489.04,350.195 C488.201,349.863 487.707,349.5 487.036,348.983 L487.036,348.983 C485.031,347.441 482.698,345.982 478.2,346.676 L478.2,346.676 C472.877,347.485 468.116,349.169 463.519,350.812 L463.519,350.812 C457.712,352.874 452.232,354.829 446.078,354.829 L446.078,354.829 C432.165,354.829 421.357,356.134 411.073,359.062 L411.073,359.062 C408.349,359.834 405.771,360.666 403.304,361.554 L403.304,361.554 C403.428,361.131 403.528,360.684 403.607,360.219 L403.607,360.219 C404.098,357.13 402.709,354.514 401.558,352.556 L401.558,352.556 C410.375,347.675 413.713,345.227 414.476,341.977 L414.476,341.977 C414.836,340.434 414.538,338.823 413.646,337.544 L413.646,337.544 C409.834,332.07 411.024,322.49 412.061,314.045 L412.061,314.045 C412.419,311.125 412.77,308.366 412.926,305.727 L412.926,305.727 C413.097,303.002 411.024,300.657 408.29,300.488 L408.29,300.488 C405.529,300.323 403.216,302.396 403.058,305.122 L403.058,305.122 C402.909,307.461 402.584,310.064 402.243,312.827 L402.243,312.827 C401.141,321.762 399.904,331.74 403.618,339.854 L403.618,339.854 C401.126,341.525 397.026,343.768 395.41,344.652 L395.41,344.652 C394.241,345.283 393.355,345.778 392.936,346.042 L392.936,346.042 C391.838,346.731 391.049,347.833 390.746,349.103 L390.746,349.103 C389.971,352.391 391.609,355.178 392.814,357.212 L392.814,357.212 C393.115,357.726 393.562,358.471 393.754,358.921 L393.754,358.921 C393.513,359.434 392.827,360.084 391.815,361.003 L391.815,361.003 C390.798,361.939 389.659,362.982 388.674,364.356 L388.674,364.356 C388.138,365.089 387.675,365.846 387.256,366.642 L387.256,366.642 C387.521,363.753 387.721,360.483 384.822,356.875 L384.822,356.875 C382.168,353.565 378.645,351.705 375.528,350.071 L375.528,350.071 C374.519,349.542 373.526,349.013 372.578,348.44 L372.578,348.44 C365.422,344.075 358.282,339.701 351.14,335.339 L351.14,335.339 L348.621,333.795 C347.91,333.361 346.68,332.711 345.212,331.951 L345.212,331.951 C343.098,330.865 337.689,328.061 336.152,326.582 L336.152,326.582 C335.536,324.462 333.875,320.391 331.41,318.562 L331.41,318.562 C329.147,316.869 326.577,316.667 324.508,316.499 L324.508,316.499 C322.795,316.353 321.73,316.238 321.247,315.731 L321.247,315.731 C320.558,315.009 319.906,314.339 319.285,313.707 L319.285,313.707 C315.396,309.736 313.785,308.099 313.478,302.299 L313.478,302.299 C313.431,301.256 313.435,300.187 313.46,299.104 L313.46,299.104 C313.514,294.413 313.585,288.572 308.979,283.95 L308.979,283.95 C306.792,281.745 304.217,280.703 302.152,279.866 L302.152,279.866 C300.838,279.334 299.709,278.881 298.992,278.289 L298.992,278.289 C298.715,278.05 298.418,277.687 298.076,277.29 L298.076,277.29 C296.594,275.609 294.341,273.053 291.057,271.932 L291.057,271.932 C283.555,269.325 275.012,269.096 266.896,269.096 L266.896,269.096 L16.677,268.909 C14.539,268.909 12.685,269.124 11.195,269.29 L11.195,269.29 C10.815,269.337 10.368,269.389 9.953,269.425 L9.953,269.425 C9.928,269.062 9.914,268.598 9.914,268.024 L9.914,268.024 L9.881,252.445 C11.244,251.429 13.916,250.254 15.495,249.561 L15.495,249.561 C17.424,248.705 19.252,247.893 20.773,246.895 L20.773,246.895 C23.724,244.951 26.071,242.621 28.36,240.373 L28.36,240.373 C29.776,238.967 31.123,237.646 32.518,236.497 L32.518,236.497 C34.176,235.136 36.397,233.969 38.74,232.736 L38.74,232.736 C41.399,231.34 44.144,229.883 46.465,227.94 L46.465,227.94 C48.948,225.852 50.341,223.293 51.564,221.032 L51.564,221.032 C52.336,219.612 53.066,218.273 53.904,217.404 L53.904,217.404 C54.828,216.446 56.527,215.511 58.16,214.587 L58.16,214.587 C62.564,212.112 70.758,207.503 66.467,197.244 L66.467,197.244 C66.044,196.242 65.654,195.388 65.296,194.612 L65.296,194.612 C64.115,192.078 63.876,191.547 64.267,188.96 L64.267,188.96 C64.334,188.518 64.418,188.057 64.509,187.592 L64.509,187.592 C65.141,184.199 66.453,177.145 59.426,173.444 L59.426,173.444 C58.191,172.797 57.006,172.49 55.956,172.346 L55.956,172.346 C56.188,169.642 55.988,167.676 55.832,166.307 L55.832,166.307 C56.216,166.126 56.741,165.901 57.473,165.609 L57.473,165.609 C75.374,158.493 89.615,156.035 102.325,157.9 L102.325,157.9 C104.852,158.252 107.18,157.802 109.046,157.43 L109.046,157.43 C110.473,157.148 111.703,156.906 112.612,157.073 L112.612,157.073 L127.987,159.988 C133.01,160.936 134.231,161.5 137.274,164.27 L137.274,164.27 C144.157,170.55 150.319,168.372 154.824,166.779 L154.824,166.779 C156.625,166.141 158.334,165.539 160.21,165.29 L160.21,165.29 C163.809,164.798 167.505,165.147 171.407,165.529 L171.407,165.529 C173.519,165.733 175.623,165.928 177.758,166.011 L177.758,166.011 C181.867,166.199 185.752,164.759 189.177,163.502 L189.177,163.502 C190.197,163.126 191.21,162.761 192.167,162.451 L192.167,162.451 C193.954,161.904 195.845,161.614 197.834,161.31 L197.834,161.31 C199.227,161.097 200.62,160.878 202.031,160.581 L202.031,160.581 C206.102,159.74 207.643,157.021 208.561,155.405 L208.561,155.405 C208.741,155.083 208.931,154.734 209.17,154.409 L209.17,154.409 C210.089,153.157 211.98,151.999 213.811,150.887 L213.811,150.887 L214.902,150.219 C217.903,148.342 220.809,146.45 223.249,143.922 L223.249,143.922 C223.678,143.734 225.213,143.807 226.134,143.859 L226.134,143.859 C228.303,143.969 230.995,144.112 233.592,142.967 L233.592,142.967 C243.386,138.672 240.114,127.177 238.355,121 L238.355,121 C237.88,119.331 237.343,117.439 237.286,116.573 L237.286,116.573 C237.185,114.944 238.38,113.342 240.316,110.865 L240.316,110.865 C242.667,107.88 245.6,104.145 245.461,98.922 L245.461,98.922 C245.34,94.531 242.564,88.142 236.781,87.655 L236.781,87.655 C234.745,87.493 233.055,88.199 231.845,88.78 L231.845,88.78 C231.562,88.132 231.334,87.316 231.277,86.756 L231.277,86.756 C232.009,85.925 234.063,84.626 234.99,84.033 L234.99,84.033 C235.435,83.745 235.862,83.485 236.216,83.239 L236.216,83.239 C238.185,81.914 240.384,80.744 242.717,79.506 L242.717,79.506 C246.473,77.515 250.354,75.45 253.745,72.47 L253.745,72.47 C254.883,71.475 255.961,70.487 257.002,69.512 L257.002,69.512 C259.184,67.496 261.246,65.58 263.543,64.038 L263.543,64.038 C266.78,61.88 267.311,57.913 267.733,54.73 L267.733,54.73 C267.829,53.97 267.988,52.824 268.11,52.464 L268.11,52.464 C269.885,48.043 275.497,43.58 280.455,39.632 L280.455,39.632 C282.555,37.96 284.534,36.381 286.271,34.793 L286.271,34.793 C287.222,33.917 288.152,33.035 289.089,32.16 L289.089,32.16 C293.288,28.218 297.251,24.489 301.909,21.622 L301.909,21.622 C305.671,19.3 311.221,16.018 315.909,14.256 L315.909,14.256 C321.126,12.29 322.838,12.39 329.217,12.762 L329.217,12.762 L330.501,12.84 C343.542,13.585 356.874,13.24 369.768,12.907 L369.768,12.907 C376.065,12.751 382.364,12.595 388.616,12.559 L388.616,12.559 C390.888,12.541 393.745,12.188 396.779,11.816 L396.779,11.816 C401.984,11.165 411.69,9.975 414.188,12.13 L414.188,12.13 C414.335,12.246 414.585,12.47 414.622,13.248 L414.622,13.248 C414.567,13.492 414.186,14.161 413.937,14.609 L413.937,14.609 C413.108,16.096 411.972,18.13 411.972,20.839 L411.972,20.839 C411.972,23.803 413.333,25.81 414.134,27.01 L414.134,27.01 C414.299,27.268 414.496,27.496 414.559,27.5 L414.559,27.5 C414.343,28.704 413.985,29.97 413.628,31.257 L413.628,31.257 C412.952,33.695 412.19,36.472 412.092,39.206 L412.092,39.206 C412,41.944 414.147,44.223 416.874,44.315 L416.874,44.315 C419.553,44.471 421.893,42.272 421.985,39.54 L421.985,39.54 C422.034,37.971 422.606,35.896 423.161,33.89 L423.161,33.89 C423.6,32.306 424.03,30.74 424.293,29.27 L424.293,29.27 C424.987,25.437 423.269,22.875 422.341,21.496 L422.341,21.496 C422.154,21.21 421.885,20.803 421.862,20.885 L421.862,20.885 C421.917,20.637 422.309,19.904 422.583,19.424 L422.583,19.424 C423.415,17.922 424.557,15.872 424.499,13.144 L424.499,13.144 C424.419,9.675 423.09,6.736 420.652,4.639 L420.652,4.639 C417.397,1.829 412.756,0.989 407.716,0.989 L407.716,0.989 C403.752,0.989 399.541,1.508 395.564,1.997 M392.834,377.568 C398.516,373.9 405.366,370.957 413.778,368.577 L413.778,368.577 C423.156,365.913 433.108,364.721 446.078,364.721 L446.078,364.721 C453.942,364.721 460.488,362.386 466.839,360.128 L466.839,360.128 C471.184,358.576 475.294,357.122 479.675,356.459 L479.675,356.459 C480.139,356.393 480.385,356.393 480.397,356.365 L480.397,356.365 C480.619,356.491 480.806,356.667 481.03,356.832 L481.03,356.832 C481.926,357.521 483.281,358.573 485.444,359.41 L485.444,359.41 C486.853,359.964 488.243,360.303 489.619,360.496 L489.619,360.496 L486.009,361.621 C482.118,362.858 478.2,364.101 474.264,365.232 L474.264,365.232 C472.549,365.708 470.818,366.19 469.103,366.626 L469.103,366.626 C465.747,367.475 462.941,369.045 460.225,370.55 L460.225,370.55 C458.237,371.662 456.368,372.701 454.522,373.301 L454.522,373.301 C450.671,374.563 446.625,375.217 441.386,375.437 L441.386,375.437 C437.706,375.598 434.794,376.909 432.451,377.968 L432.451,377.968 C431.513,378.389 430.098,379.027 429.839,379.078 L429.839,379.078 C425.923,377.797 420.548,379.426 412.796,382.068 L412.796,382.068 C410.783,382.751 408.878,383.393 407.773,383.651 L407.773,383.651 C402.516,384.881 397.058,385.87 391.779,386.827 L391.779,386.827 L387.949,387.508 C386.818,387.724 385.676,387.939 384.544,388.158 L384.544,388.158 C384.871,386.896 384.951,385.36 384.567,383.514 L384.567,383.514 C384.419,382.836 384.432,382.159 384.574,380.903 L384.574,380.903 C384.63,380.469 384.785,379.964 384.983,379.309 L384.983,379.309 C385.166,378.716 385.344,378.108 385.495,377.482 L385.495,377.482 C385.621,376.945 385.742,376.416 385.866,375.89 L385.866,375.89 C386.221,376.53 386.737,377.087 387.374,377.514 L387.374,377.514 C388.211,378.078 389.177,378.361 390.145,378.361 L390.145,378.361 C391.078,378.361 392.013,378.098 392.834,377.568" id="path-1"></path>
        <linearGradient x1="94.0302689%" y1="29.7674247%" x2="24.6120112%" y2="81.382226%" id="linearGradient-3">
            <stop stop-color="#0000FF" offset="0%"></stop>
            <stop stop-color="#0000B2" offset="100%"></stop>
        </linearGradient>
    </defs>
    <g id="Page-1" stroke="none" stroke-width="1" fill="none" fill-rule="evenodd">
        <g id="NYS_IDENTIFIER_CMYK">
            <g id="Group-25" transform="translate(377.000000, 53.065000)" fill="#EAA42D">
                <path d="M23.9502,2.4365 L47.3912,39.7585 L47.3912,2.5335 C47.3912,2.5335 50.0322,0.6805 56.3902,0.6805 C62.8312,0.6805 65.4592,2.5335 65.4592,2.5335 L65.4592,67.2075 C65.4592,67.2075 62.9232,69.0635 56.4802,69.0635 C50.2282,69.0635 47.6832,67.4045 47.6832,67.4045 L24.1452,30.0895 L24.1452,67.2075 C24.1452,67.2075 21.5052,69.0635 15.0562,69.0635 C8.8012,69.0635 6.1632,67.2075 6.1632,67.2075 L6.1632,2.5335 C6.1632,2.5335 8.6182,0.6805 15.1612,0.6805 C21.4072,0.6805 23.9502,2.4365 23.9502,2.4365" id="Fill-1"></path>
                <path d="M113.3252,39.3647 L96.2322,39.3647 L96.2322,55.8777 L120.9482,55.8777 C120.9482,55.8777 122.8042,57.9277 122.8042,62.4157 C122.8042,67.0087 120.9482,69.0637 120.9482,69.0637 L78.1632,69.0637 L78.1632,0.6797 L118.9972,0.6797 C118.9972,0.6797 120.9482,2.7357 120.9482,7.3277 C120.9482,11.8217 118.9972,13.9667 118.9972,13.9667 L96.2322,13.9667 L96.2322,26.0837 L113.3252,26.0837 C113.3252,26.0837 115.1832,28.2317 115.1832,32.7247 C115.1832,37.4097 113.3252,39.3647 113.3252,39.3647" id="Fill-3"></path>
                <path d="M144.7773,67.207 L126.3123,2.534 C126.3123,2.534 129.0463,0.68 135.3993,0.68 C141.8423,0.68 144.3873,2.534 144.3873,2.534 L153.6673,35.36 C154.3483,37.802 154.6463,39.66 154.9363,40.738 C154.9363,40.437 155.4283,37.706 156.0143,35.459 L164.1153,2.534 C164.1153,2.534 167.2393,0.68 171.6423,0.68 C175.8403,0.68 178.7773,2.534 178.7773,2.534 L186.4913,35.36 L187.7613,40.738 C187.7613,39.852 188.3483,37.41 188.9303,35.459 L198.5073,2.534 C198.6013,2.534 201.1433,0.68 207.3973,0.68 C213.7463,0.68 216.4813,2.534 216.4813,2.534 L197.7243,67.207 C197.7243,67.207 195.0853,68.965 189.1293,69.063 C182.1913,69.063 179.7533,67.207 179.7533,67.207 L172.4203,37.217 C171.8403,34.967 171.4403,32.53 171.3503,32.035 L170.1713,37.217 L162.8493,67.207 C162.8493,67.207 160.3093,69.063 153.8633,69.063 C147.5113,69.063 144.7773,67.207 144.7773,67.207" id="Fill-5"></path>
                <path d="M18.2803,87.4287 L26.2913,101.4937 C29.0303,106.2827 30.4963,111.6557 30.6903,112.3357 C30.8903,111.6557 32.2553,106.3827 35.0893,101.4937 L43.2923,87.4287 C43.2923,87.4287 45.7353,85.6717 51.6873,85.6717 C58.4313,85.6717 61.2703,87.9167 61.2703,87.9167 L39.6753,125.2317 L39.6753,152.1887 C39.6753,152.1887 37.1373,154.0517 30.6903,154.0517 C24.3343,154.0517 21.8013,152.1887 21.8013,152.1887 L21.8013,124.9397 L0.2093,87.9167 C0.2093,87.9167 3.1433,85.6717 9.8763,85.6717 C15.6433,85.6717 18.2803,87.4287 18.2803,87.4287" id="Fill-7"></path>
                <path d="M93.9883,141.5415 C103.7463,141.5415 109.0303,132.7545 109.0303,119.9615 C109.0303,107.1645 103.7463,98.2715 93.9883,98.2715 C84.2173,98.2715 78.9503,107.1645 78.9503,119.9615 C78.9503,132.7545 84.2173,141.5415 93.9883,141.5415 M93.9883,154.7385 C70.9323,154.7385 60.8723,141.2515 60.8723,119.9615 C60.8723,98.6615 70.9323,84.9875 93.9883,84.9875 C116.9463,84.9875 127.0993,98.6615 127.0993,119.9615 C127.0993,141.2515 116.9463,154.7385 93.9883,154.7385" id="Fill-9"></path>
                <path d="M159.9268,98.2715 C156.9898,98.2715 154.8468,98.8575 154.8468,98.8575 L154.8468,115.8535 L159.7268,115.8535 C166.8498,115.8535 169.5928,110.8755 169.5928,107.0645 C169.5928,102.0835 166.1728,98.2715 159.9268,98.2715 L159.9268,98.2715 Z M154.8468,152.1885 C154.8468,152.1885 152.2038,154.0515 145.7578,154.0515 C139.4078,154.0515 136.8648,152.1885 136.8648,152.1885 L136.8648,88.4065 C136.8648,88.4065 144.1928,84.9875 157.6768,84.9875 C178.0918,84.9875 187.5698,92.7985 187.5698,106.4755 C187.5698,119.9615 177.2098,125.4175 175.9438,125.5275 L191.7628,151.8085 C189.8208,153.0725 184.4458,154.0515 180.8288,154.0515 C176.1398,154.0515 172.4298,152.3915 172.4298,152.3915 L160.5138,131.5865 C159.8238,130.1155 158.8488,129.0425 157.1928,129.0425 L154.8468,129.0425 L154.8468,152.1885 Z" id="Fill-11"></path>
                <path d="M260.9238,151.7041 C260.9238,151.7041 256.3358,154.0521 248.9108,154.0521 C242.5598,154.0521 239.9228,152.3911 239.9228,152.3911 L216.7758,120.9331 L216.7758,152.1881 C216.7758,152.1881 214.3318,154.0521 207.8818,154.0521 C201.4308,154.0521 198.7978,152.1881 198.7978,152.1881 L198.7978,87.5301 C198.7978,87.5301 201.4308,85.6721 207.8818,85.6721 C214.2338,85.6721 216.7758,87.5301 216.7758,87.5301 L216.7758,117.9101 L239.1458,87.4291 C239.1458,87.4291 241.7798,85.6721 248.1298,85.6721 C255.4508,85.6721 258.3908,88.1061 258.3908,88.1061 L236.5078,117.9101 L260.9238,151.7041 Z" id="Fill-13"></path>
                <path d="M52.4805,175.3457 C53.7425,181.5927 50.4205,186.5747 46.7055,187.8457 C43.0915,185.4127 37.3345,183.2547 31.2815,183.2547 C25.1225,183.2547 21.7045,185.5947 21.7045,188.9237 C21.7045,192.0487 24.5355,193.1247 32.0545,195.5737 L41.4335,198.5947 C51.5005,201.9137 57.7455,207.0017 57.7455,217.7367 C57.7455,230.1467 49.5425,239.7217 29.6155,239.7217 C15.6435,239.7217 7.0425,235.0327 3.9185,231.9087 C2.9415,227.3157 5.4755,221.5497 9.1055,219.6967 C12.2225,222.0437 21.5045,226.5337 30.9765,226.5337 C36.6455,226.5337 39.7795,224.4867 39.7795,220.7657 C39.7795,218.1327 38.1145,216.4717 34.2075,215.1967 L18.4855,210.4197 C10.0725,207.7777 3.7295,201.7237 3.7295,191.8537 C3.7295,177.7837 13.2985,169.9757 30.9765,169.9757 C42.2135,169.9757 48.7645,173.0057 52.4805,175.3457" id="Fill-15"></path>
                <path d="M62.624,183.9414 C62.624,183.9414 60.769,181.9914 60.769,177.2984 C60.769,172.8054 62.624,170.6544 62.624,170.6544 L115.671,170.6544 C115.671,170.6544 117.533,172.7084 117.533,177.2984 C117.533,181.8924 115.671,183.9414 115.671,183.9414 L98.083,183.9414 L98.083,237.1834 C98.083,237.1834 95.549,239.0404 89.198,239.0404 C82.653,239.0404 80.015,237.1834 80.015,237.1834 L80.015,183.9414 L62.624,183.9414 Z" id="Fill-17"></path>
                <path d="M138.0371,212.9551 L152.5971,212.9551 L147.7141,201.2281 C146.7371,198.8841 145.4671,194.1001 145.3571,193.6101 C145.1721,194.1001 143.7011,198.8841 142.8261,201.2281 L138.0371,212.9551 Z M154.1521,172.4141 L180.5361,236.8821 C180.5361,236.8821 177.8991,239.0401 171.2491,239.0401 C165.0961,239.0401 162.6621,237.2781 162.6621,237.2781 L157.8681,226.0411 L132.7651,226.0411 L128.2641,237.2781 C128.2641,237.2781 125.7291,239.0401 119.6751,239.0401 C113.0361,239.0401 110.1971,236.8821 110.1971,236.8821 L136.5781,172.4141 C136.5781,172.4141 139.0131,170.6541 145.3571,170.6541 C151.7181,170.6541 154.1521,172.4141 154.1521,172.4141 L154.1521,172.4141 Z" id="Fill-19"></path>
                <path d="M175.1562,183.9414 C175.1562,183.9414 173.2982,181.9914 173.2982,177.2984 C173.2982,172.8054 175.1562,170.6544 175.1562,170.6544 L228.2002,170.6544 C228.2002,170.6544 230.0532,172.7084 230.0532,177.2984 C230.0532,181.8924 228.2002,183.9414 228.2002,183.9414 L210.6102,183.9414 L210.6102,237.1834 C210.6102,237.1834 208.0812,239.0404 201.7252,239.0404 C195.1822,239.0404 192.5422,237.1834 192.5422,237.1834 L192.5422,183.9414 L175.1562,183.9414 Z" id="Fill-21"></path>
                <path d="M273.4287,209.3369 L256.3327,209.3369 L256.3327,225.8499 L281.0437,225.8499 C281.0437,225.8499 282.9017,227.9009 282.9017,232.3919 C282.9017,236.9889 281.0437,239.0399 281.0437,239.0399 L238.2567,239.0399 L238.2567,170.6539 L279.0927,170.6539 C279.0927,170.6539 281.0437,172.7079 281.0437,177.2989 C281.0437,181.7929 279.0927,183.9409 279.0927,183.9409 L256.3327,183.9409 L256.3327,196.0549 L273.4287,196.0549 C273.4287,196.0549 275.2827,198.2099 275.2827,202.7029 C275.2827,207.3839 273.4287,209.3369 273.4287,209.3369" id="Fill-23"></path>
            </g>
            <g id="Group-28" transform="translate(0.000000, 0.065000)">
                <mask id="mask-2" fill="white">
                    <use xlink:href="#path-1"></use>
                </mask>
                <g id="Clip-27"></g>
                <path d="M395.564,1.997 C392.84,2.335 390.254,2.651 388.553,2.657 L388.553,2.657 C382.239,2.698 375.893,2.863 369.521,3.027 L369.521,3.027 C356.824,3.346 343.701,3.681 331.051,2.956 L331.051,2.956 L329.793,2.888 C323.016,2.497 319.608,2.299 312.429,4.994 L312.429,4.994 C307,7.034 301.18,10.453 296.716,13.194 L296.716,13.194 C291.21,16.593 286.686,20.843 282.309,24.953 L282.309,24.953 C281.4,25.807 280.49,26.663 279.566,27.514 L279.566,27.514 C278.111,28.854 276.249,30.335 274.29,31.892 L274.29,31.892 C268.378,36.603 261.68,41.93 258.938,48.767 L258.938,48.767 C258.362,50.187 258.142,51.832 257.927,53.415 L257.927,53.415 C257.814,54.25 257.644,55.54 257.453,56.225 L257.453,56.225 C254.768,58.1 252.493,60.212 250.286,62.25 L250.286,62.25 C249.304,63.159 248.3,64.087 247.227,65.03 L247.227,65.03 C244.691,67.248 241.474,68.962 238.065,70.769 L238.065,70.769 C235.625,72.071 233.089,73.424 230.697,75.028 L230.697,75.028 L229.686,75.681 C226.879,77.468 223.038,79.903 221.792,83.683 L221.792,83.683 C220.289,88.235 222.992,96.246 227.912,98.509 L227.912,98.509 C230.977,99.921 233.659,98.888 235.333,98.089 L235.333,98.089 C235.464,98.474 235.56,98.888 235.565,99.185 L235.565,99.185 C235.602,100.728 234.447,102.324 232.536,104.763 L232.536,104.763 C230.101,107.86 227.069,111.723 227.418,117.196 L227.418,117.196 C227.541,119.131 228.147,121.254 228.844,123.714 L228.844,123.714 C229.839,127.215 231.51,133.076 229.61,133.912 L229.61,133.912 C229.158,134.105 227.652,134.034 226.658,133.979 L226.658,133.979 C223.803,133.839 219.514,133.604 216.282,136.935 L216.282,136.935 C214.501,138.75 212.233,140.225 209.662,141.825 L209.662,141.825 L208.662,142.439 C206.261,143.911 203.271,145.724 201.187,148.562 L201.187,148.562 C200.702,149.236 200.316,149.891 199.96,150.52 L199.96,150.52 C199.869,150.673 199.793,150.823 199.714,150.963 L199.714,150.963 C198.578,151.191 197.46,151.358 196.343,151.536 L196.343,151.536 C194.075,151.878 191.735,152.23 189.233,153.005 L189.233,153.005 C188.108,153.36 186.952,153.785 185.768,154.22 L185.768,154.22 C183.089,155.2 180.337,156.206 178.158,156.127 L178.158,156.127 C176.207,156.049 174.269,155.866 172.345,155.683 L172.345,155.683 C168.062,155.27 163.631,154.855 158.904,155.479 L158.904,155.479 C156.005,155.866 153.62,156.705 151.523,157.445 L151.523,157.445 C147.337,158.936 146.357,159.176 143.934,156.965 L143.934,156.965 C139.212,152.653 136.124,151.465 129.834,150.267 L129.834,150.267 L114.454,147.354 C111.671,146.817 109.156,147.317 107.114,147.726 L107.114,147.726 C105.764,148.003 104.593,148.235 103.738,148.112 L103.738,148.112 C89.266,145.994 73.404,148.63 53.824,156.411 L53.824,156.411 C47.272,159.007 45.377,161.642 45.988,167.278 L45.988,167.278 C46.141,168.61 46.301,170.113 45.988,172.456 L45.988,172.456 C45.67,174.78 45.556,177.736 47.538,179.954 L47.538,179.954 C49.521,182.191 52.147,182.115 53.582,182.127 L53.582,182.127 C54.03,182.118 54.639,182.11 54.811,182.2 L54.811,182.2 C55.01,182.301 55.111,182.384 55.111,182.384 L55.111,182.384 C55.314,182.921 54.968,184.775 54.775,185.773 L54.775,185.773 C54.674,186.36 54.569,186.93 54.485,187.474 L54.485,187.474 C53.65,193.01 54.881,195.68 56.322,198.782 L56.322,198.782 C56.628,199.45 56.979,200.193 57.342,201.057 L57.342,201.057 C58.114,202.907 58.228,203.191 53.318,205.966 L53.318,205.966 C51.174,207.166 48.741,208.535 46.814,210.513 L46.814,210.513 C45.026,212.353 43.877,214.451 42.875,216.308 L42.875,216.308 C41.942,218.013 41.151,219.485 40.087,220.374 L40.087,220.374 C38.593,221.632 36.427,222.776 34.121,223.988 L34.121,223.988 C31.448,225.391 28.689,226.852 26.263,228.839 L26.263,228.839 C24.5,230.281 22.927,231.829 21.404,233.328 L21.404,233.328 C19.367,235.34 17.453,237.23 15.326,238.64 L15.326,238.64 C14.505,239.181 12.972,239.856 11.492,240.511 L11.492,240.511 C7.534,242.265 3.048,244.247 0.742,247.945 L0.742,247.945 C0.252,248.728 -0.004,249.635 -0.004,250.557 L-0.004,250.557 L0.011,268.028 C0.018,271.315 0.389,274.984 3.081,277.39 L3.081,277.39 C5.865,279.861 9.3,279.464 12.335,279.115 L12.335,279.115 C13.697,278.959 15.104,278.797 16.677,278.797 L16.677,278.797 L266.891,278.989 C274.467,278.989 281.756,279.173 287.835,281.28 L287.835,281.28 C288.655,281.562 289.857,282.926 290.645,283.83 L290.645,283.83 C291.39,284.669 292.064,285.392 292.652,285.889 L292.652,285.889 C294.568,287.48 296.631,288.315 298.445,289.045 L298.445,289.045 C299.926,289.643 301.195,290.157 301.957,290.921 L301.957,290.921 C303.558,292.528 303.605,295.032 303.562,298.981 L303.562,298.981 C303.546,300.276 303.533,301.555 303.601,302.804 L303.601,302.804 C304.097,312.347 307.863,316.187 312.225,320.641 L312.225,320.641 C312.804,321.238 313.431,321.862 314.06,322.536 L314.06,322.536 C317.182,325.823 321.105,326.151 323.702,326.363 L323.702,326.363 C324.267,326.407 325.079,326.465 325.394,326.489 L325.394,326.489 C325.86,327.217 326.522,328.73 326.652,329.358 L326.652,329.358 C327.527,333.658 332.766,336.659 340.663,340.736 L340.663,340.736 C341.866,341.365 342.88,341.877 343.455,342.227 L343.455,342.227 L345.972,343.768 C353.118,348.149 360.276,352.522 367.424,356.891 L367.424,356.891 C368.558,357.568 369.737,358.2 370.931,358.827 L370.931,358.827 C373.405,360.128 375.733,361.351 377.11,363.058 L377.11,363.058 C377.558,363.632 377.594,363.678 377.36,366.245 L377.36,366.245 C377.1,369.112 376.614,372.046 375.866,375.214 L375.866,375.214 C375.773,375.628 375.651,376.021 375.528,376.401 L375.528,376.401 C375.249,377.299 374.904,378.419 374.757,379.747 L374.757,379.747 C374.56,381.351 374.434,383.107 374.8,385.141 L374.8,385.141 C374.287,385.478 373.673,385.944 373.074,386.614 L373.074,386.614 C372.536,387.214 372.067,387.885 371.609,388.559 L371.609,388.559 L371.159,389.22 C369.768,391.215 369.251,393.392 369.713,395.338 L369.713,395.338 C370.11,397.031 371.181,398.427 372.725,399.27 L372.725,399.27 C373.755,399.83 374.815,400.018 375.803,400.018 L375.803,400.018 C377.236,400.018 378.551,399.614 379.491,399.325 L379.491,399.325 L379.889,399.211 C383.156,398.482 386.46,397.851 389.749,397.247 L389.749,397.247 L393.538,396.558 C398.935,395.581 404.526,394.57 410.018,393.289 L410.018,393.289 C411.615,392.913 413.636,392.226 415.988,391.431 L415.988,391.431 C418.967,390.405 425.178,388.291 426.771,388.483 L426.771,388.483 C430.501,389.699 433.841,388.193 436.512,386.979 L436.512,386.979 C438.318,386.176 440.036,385.396 441.809,385.316 L441.809,385.316 C447.985,385.061 452.849,384.259 457.598,382.715 L457.598,382.715 C460.347,381.81 462.732,380.481 465.044,379.193 L465.044,379.193 C467.296,377.946 469.431,376.75 471.525,376.22 L471.525,376.22 C473.336,375.762 475.146,375.252 476.972,374.739 L476.972,374.739 C481.013,373.583 485.009,372.325 488.997,371.055 L488.997,371.055 L494.286,369.398 C499.849,367.683 511.413,364.137 511.502351,355.534 L511.502351,355.534 C511.529,353.264 509.994,351.271 507.793,350.695 L507.793,350.695 C504.099,349.744 500.477,350.138 497.279,350.486 L497.279,350.486 C494.12,350.82 491.392,351.113 489.04,350.195 L489.04,350.195 C488.201,349.863 487.707,349.5 487.036,348.983 L487.036,348.983 C485.031,347.441 482.698,345.982 478.2,346.676 L478.2,346.676 C472.877,347.485 468.116,349.169 463.519,350.812 L463.519,350.812 C457.712,352.874 452.232,354.829 446.078,354.829 L446.078,354.829 C432.165,354.829 421.357,356.134 411.073,359.062 L411.073,359.062 C408.349,359.834 405.771,360.666 403.304,361.554 L403.304,361.554 C403.428,361.131 403.528,360.684 403.607,360.219 L403.607,360.219 C404.098,357.13 402.709,354.514 401.558,352.556 L401.558,352.556 C410.375,347.675 413.713,345.227 414.476,341.977 L414.476,341.977 C414.836,340.434 414.538,338.823 413.646,337.544 L413.646,337.544 C409.834,332.07 411.024,322.49 412.061,314.045 L412.061,314.045 C412.419,311.125 412.77,308.366 412.926,305.727 L412.926,305.727 C413.097,303.002 411.024,300.657 408.29,300.488 L408.29,300.488 C405.529,300.323 403.216,302.396 403.058,305.122 L403.058,305.122 C402.909,307.461 402.584,310.064 402.243,312.827 L402.243,312.827 C401.141,321.762 399.904,331.74 403.618,339.854 L403.618,339.854 C401.126,341.525 397.026,343.768 395.41,344.652 L395.41,344.652 C394.241,345.283 393.355,345.778 392.936,346.042 L392.936,346.042 C391.838,346.731 391.049,347.833 390.746,349.103 L390.746,349.103 C389.971,352.391 391.609,355.178 392.814,357.212 L392.814,357.212 C393.115,357.726 393.562,358.471 393.754,358.921 L393.754,358.921 C393.513,359.434 392.827,360.084 391.815,361.003 L391.815,361.003 C390.798,361.939 389.659,362.982 388.674,364.356 L388.674,364.356 C388.138,365.089 387.675,365.846 387.256,366.642 L387.256,366.642 C387.521,363.753 387.721,360.483 384.822,356.875 L384.822,356.875 C382.168,353.565 378.645,351.705 375.528,350.071 L375.528,350.071 C374.519,349.542 373.526,349.013 372.578,348.44 L372.578,348.44 C365.422,344.075 358.282,339.701 351.14,335.339 L351.14,335.339 L348.621,333.795 C347.91,333.361 346.68,332.711 345.212,331.951 L345.212,331.951 C343.098,330.865 337.689,328.061 336.152,326.582 L336.152,326.582 C335.536,324.462 333.875,320.391 331.41,318.562 L331.41,318.562 C329.147,316.869 326.577,316.667 324.508,316.499 L324.508,316.499 C322.795,316.353 321.73,316.238 321.247,315.731 L321.247,315.731 C320.558,315.009 319.906,314.339 319.285,313.707 L319.285,313.707 C315.396,309.736 313.785,308.099 313.478,302.299 L313.478,302.299 C313.431,301.256 313.435,300.187 313.46,299.104 L313.46,299.104 C313.514,294.413 313.585,288.572 308.979,283.95 L308.979,283.95 C306.792,281.745 304.217,280.703 302.152,279.866 L302.152,279.866 C300.838,279.334 299.709,278.881 298.992,278.289 L298.992,278.289 C298.715,278.05 298.418,277.687 298.076,277.29 L298.076,277.29 C296.594,275.609 294.341,273.053 291.057,271.932 L291.057,271.932 C283.555,269.325 275.012,269.096 266.896,269.096 L266.896,269.096 L16.677,268.909 C14.539,268.909 12.685,269.124 11.195,269.29 L11.195,269.29 C10.815,269.337 10.368,269.389 9.953,269.425 L9.953,269.425 C9.928,269.062 9.914,268.598 9.914,268.024 L9.914,268.024 L9.881,252.445 C11.244,251.429 13.916,250.254 15.495,249.561 L15.495,249.561 C17.424,248.705 19.252,247.893 20.773,246.895 L20.773,246.895 C23.724,244.951 26.071,242.621 28.36,240.373 L28.36,240.373 C29.776,238.967 31.123,237.646 32.518,236.497 L32.518,236.497 C34.176,235.136 36.397,233.969 38.74,232.736 L38.74,232.736 C41.399,231.34 44.144,229.883 46.465,227.94 L46.465,227.94 C48.948,225.852 50.341,223.293 51.564,221.032 L51.564,221.032 C52.336,219.612 53.066,218.273 53.904,217.404 L53.904,217.404 C54.828,216.446 56.527,215.511 58.16,214.587 L58.16,214.587 C62.564,212.112 70.758,207.503 66.467,197.244 L66.467,197.244 C66.044,196.242 65.654,195.388 65.296,194.612 L65.296,194.612 C64.115,192.078 63.876,191.547 64.267,188.96 L64.267,188.96 C64.334,188.518 64.418,188.057 64.509,187.592 L64.509,187.592 C65.141,184.199 66.453,177.145 59.426,173.444 L59.426,173.444 C58.191,172.797 57.006,172.49 55.956,172.346 L55.956,172.346 C56.188,169.642 55.988,167.676 55.832,166.307 L55.832,166.307 C56.216,166.126 56.741,165.901 57.473,165.609 L57.473,165.609 C75.374,158.493 89.615,156.035 102.325,157.9 L102.325,157.9 C104.852,158.252 107.18,157.802 109.046,157.43 L109.046,157.43 C110.473,157.148 111.703,156.906 112.612,157.073 L112.612,157.073 L127.987,159.988 C133.01,160.936 134.231,161.5 137.274,164.27 L137.274,164.27 C144.157,170.55 150.319,168.372 154.824,166.779 L154.824,166.779 C156.625,166.141 158.334,165.539 160.21,165.29 L160.21,165.29 C163.809,164.798 167.505,165.147 171.407,165.529 L171.407,165.529 C173.519,165.733 175.623,165.928 177.758,166.011 L177.758,166.011 C181.867,166.199 185.752,164.759 189.177,163.502 L189.177,163.502 C190.197,163.126 191.21,162.761 192.167,162.451 L192.167,162.451 C193.954,161.904 195.845,161.614 197.834,161.31 L197.834,161.31 C199.227,161.097 200.62,160.878 202.031,160.581 L202.031,160.581 C206.102,159.74 207.643,157.021 208.561,155.405 L208.561,155.405 C208.741,155.083 208.931,154.734 209.17,154.409 L209.17,154.409 C210.089,153.157 211.98,151.999 213.811,150.887 L213.811,150.887 L214.902,150.219 C217.903,148.342 220.809,146.45 223.249,143.922 L223.249,143.922 C223.678,143.734 225.213,143.807 226.134,143.859 L226.134,143.859 C228.303,143.969 230.995,144.112 233.592,142.967 L233.592,142.967 C243.386,138.672 240.114,127.177 238.355,121 L238.355,121 C237.88,119.331 237.343,117.439 237.286,116.573 L237.286,116.573 C237.185,114.944 238.38,113.342 240.316,110.865 L240.316,110.865 C242.667,107.88 245.6,104.145 245.461,98.922 L245.461,98.922 C245.34,94.531 242.564,88.142 236.781,87.655 L236.781,87.655 C234.745,87.493 233.055,88.199 231.845,88.78 L231.845,88.78 C231.562,88.132 231.334,87.316 231.277,86.756 L231.277,86.756 C232.009,85.925 234.063,84.626 234.99,84.033 L234.99,84.033 C235.435,83.745 235.862,83.485 236.216,83.239 L236.216,83.239 C238.185,81.914 240.384,80.744 242.717,79.506 L242.717,79.506 C246.473,77.515 250.354,75.45 253.745,72.47 L253.745,72.47 C254.883,71.475 255.961,70.487 257.002,69.512 L257.002,69.512 C259.184,67.496 261.246,65.58 263.543,64.038 L263.543,64.038 C266.78,61.88 267.311,57.913 267.733,54.73 L267.733,54.73 C267.829,53.97 267.988,52.824 268.11,52.464 L268.11,52.464 C269.885,48.043 275.497,43.58 280.455,39.632 L280.455,39.632 C282.555,37.96 284.534,36.381 286.271,34.793 L286.271,34.793 C287.222,33.917 288.152,33.035 289.089,32.16 L289.089,32.16 C293.288,28.218 297.251,24.489 301.909,21.622 L301.909,21.622 C305.671,19.3 311.221,16.018 315.909,14.256 L315.909,14.256 C321.126,12.29 322.838,12.39 329.217,12.762 L329.217,12.762 L330.501,12.84 C343.542,13.585 356.874,13.24 369.768,12.907 L369.768,12.907 C376.065,12.751 382.364,12.595 388.616,12.559 L388.616,12.559 C390.888,12.541 393.745,12.188 396.779,11.816 L396.779,11.816 C401.984,11.165 411.69,9.975 414.188,12.13 L414.188,12.13 C414.335,12.246 414.585,12.47 414.622,13.248 L414.622,13.248 C414.567,13.492 414.186,14.161 413.937,14.609 L413.937,14.609 C413.108,16.096 411.972,18.13 411.972,20.839 L411.972,20.839 C411.972,23.803 413.333,25.81 414.134,27.01 L414.134,27.01 C414.299,27.268 414.496,27.496 414.559,27.5 L414.559,27.5 C414.343,28.704 413.985,29.97 413.628,31.257 L413.628,31.257 C412.952,33.695 412.19,36.472 412.092,39.206 L412.092,39.206 C412,41.944 414.147,44.223 416.874,44.315 L416.874,44.315 C419.553,44.471 421.893,42.272 421.985,39.54 L421.985,39.54 C422.034,37.971 422.606,35.896 423.161,33.89 L423.161,33.89 C423.6,32.306 424.03,30.74 424.293,29.27 L424.293,29.27 C424.987,25.437 423.269,22.875 422.341,21.496 L422.341,21.496 C422.154,21.21 421.885,20.803 421.862,20.885 L421.862,20.885 C421.917,20.637 422.309,19.904 422.583,19.424 L422.583,19.424 C423.415,17.922 424.557,15.872 424.499,13.144 L424.499,13.144 C424.419,9.675 423.09,6.736 420.652,4.639 L420.652,4.639 C417.397,1.829 412.756,0.989 407.716,0.989 L407.716,0.989 C403.752,0.989 399.541,1.508 395.564,1.997 M392.834,377.568 C398.516,373.9 405.366,370.957 413.778,368.577 L413.778,368.577 C423.156,365.913 433.108,364.721 446.078,364.721 L446.078,364.721 C453.942,364.721 460.488,362.386 466.839,360.128 L466.839,360.128 C471.184,358.576 475.294,357.122 479.675,356.459 L479.675,356.459 C480.139,356.393 480.385,356.393 480.397,356.365 L480.397,356.365 C480.619,356.491 480.806,356.667 481.03,356.832 L481.03,356.832 C481.926,357.521 483.281,358.573 485.444,359.41 L485.444,359.41 C486.853,359.964 488.243,360.303 489.619,360.496 L489.619,360.496 L486.009,361.621 C482.118,362.858 478.2,364.101 474.264,365.232 L474.264,365.232 C472.549,365.708 470.818,366.19 469.103,366.626 L469.103,366.626 C465.747,367.475 462.941,369.045 460.225,370.55 L460.225,370.55 C458.237,371.662 456.368,372.701 454.522,373.301 L454.522,373.301 C450.671,374.563 446.625,375.217 441.386,375.437 L441.386,375.437 C437.706,375.598 434.794,376.909 432.451,377.968 L432.451,377.968 C431.513,378.389 430.098,379.027 429.839,379.078 L429.839,379.078 C425.923,377.797 420.548,379.426 412.796,382.068 L412.796,382.068 C410.783,382.751 408.878,383.393 407.773,383.651 L407.773,383.651 C402.516,384.881 397.058,385.87 391.779,386.827 L391.779,386.827 L387.949,387.508 C386.818,387.724 385.676,387.939 384.544,388.158 L384.544,388.158 C384.871,386.896 384.951,385.36 384.567,383.514 L384.567,383.514 C384.419,382.836 384.432,382.159 384.574,380.903 L384.574,380.903 C384.63,380.469 384.785,379.964 384.983,379.309 L384.983,379.309 C385.166,378.716 385.344,378.108 385.495,377.482 L385.495,377.482 C385.621,376.945 385.742,376.416 385.866,375.89 L385.866,375.89 C386.221,376.53 386.737,377.087 387.374,377.514 L387.374,377.514 C388.211,378.078 389.177,378.361 390.145,378.361 L390.145,378.361 C391.078,378.361 392.013,378.098 392.834,377.568" id="Fill-26" fill="url(#linearGradient-3)" mask="url(#mask-2)"></path>
            </g>
            <g id="Group-33" transform="translate(493.000000, 375.065000)" fill="#3E64A0">
                <path d="M0.3506,1.7441 C0.3506,1.7441 0.2176,1.5981 0.2176,1.2241 C0.2176,0.8671 0.3506,0.7081 0.3506,0.7081 L7.1546,0.7081 C7.1546,0.7081 7.2886,0.8671 7.2886,1.2241 C7.2886,1.5851 7.1546,1.7441 7.1546,1.7441 L4.4706,1.7441 L4.4706,9.8611 C4.4706,9.8611 4.2706,10.0091 3.7676,10.0091 C3.2466,10.0091 3.0356,9.8611 3.0356,9.8611 L3.0356,1.7441 L0.3506,1.7441 Z" id="Fill-29"></path>
                <path d="M13.5908,9.4639 C13.4858,9.5309 13.3008,9.6109 12.9948,9.6109 C12.7808,9.6109 12.5288,9.5689 12.4228,9.4639 L10.3488,4.2539 C10.2298,3.9759 10.0308,3.4169 10.0168,3.3389 C10.0168,3.3759 9.9638,4.1099 9.9378,4.3199 L9.5538,9.8609 C9.5538,9.8609 9.3658,10.0089 8.8478,10.0089 C8.3308,10.0089 8.1148,9.8609 8.1148,9.8609 L8.8338,0.8529 C8.8338,0.8529 9.0338,0.7079 9.5268,0.7079 C10.0708,0.7079 10.2718,0.8529 10.2718,0.8529 L12.6758,6.9269 L12.9948,7.9229 C13.0058,7.8829 13.2178,7.2199 13.3248,6.9269 L15.7338,0.8529 C15.7338,0.8529 15.9448,0.7079 16.4898,0.7079 C16.9698,0.7079 17.1648,0.8529 17.1648,0.8529 L17.8858,9.8609 C17.8858,9.8609 17.6728,10.0089 17.1538,10.0089 C16.6478,10.0089 16.4638,9.8609 16.4638,9.8609 L16.0648,4.3089 L15.9828,3.3249 C15.9828,3.3389 15.7578,4.0149 15.6628,4.2429 L13.5908,9.4639 Z" id="Fill-31"></path>
            </g>
        </g>
    </g>
</svg>
